<svg width="216" height="43" viewBox="0 0 216 43" fill="none" xmlns="http://www.w3.org/2000/svg">
<path d="M54.2891 13.668V5.60547C54.2891 5.05859 54.2812 4.55078 54.2656 4.08203C54.2578 3.60547 54.2422 3.17969 54.2188 2.80469C54.1953 2.42969 54.1602 2.125 54.1133 1.89062C54.2773 1.88281 54.4844 1.875 54.7344 1.86719C54.9922 1.85156 55.2734 1.83984 55.5781 1.83203C55.8906 1.82422 56.2148 1.81641 56.5508 1.80859C56.8945 1.80078 57.2344 1.79688 57.5703 1.79688C57.9141 1.78906 58.2461 1.78516 58.5664 1.78516C58.8867 1.77734 59.1797 1.77344 59.4453 1.77344C59.7578 1.77344 60.1133 1.79297 60.5117 1.83203C60.918 1.86328 61.3398 1.92969 61.7773 2.03125C62.2227 2.13281 62.6758 2.27734 63.1367 2.46484C63.6055 2.64453 64.0547 2.88281 64.4844 3.17969C64.9219 3.47656 65.332 3.83594 65.7148 4.25781C66.0977 4.67969 66.4297 5.17969 66.7109 5.75781C67 6.33594 67.2266 7.00391 67.3906 7.76172C67.5625 8.51172 67.6484 9.36719 67.6484 10.3281C67.6484 11.4922 67.5195 12.5195 67.2617 13.4102C67.0039 14.293 66.6562 15.0586 66.2188 15.707C65.7891 16.3555 65.2891 16.8984 64.7188 17.3359C64.1484 17.7734 63.5508 18.125 62.9258 18.3906C62.3008 18.6562 61.668 18.8438 61.0273 18.9531C60.3867 19.0625 59.7812 19.1172 59.2109 19.1172C59.0234 19.1172 58.8047 19.1133 58.5547 19.1055C58.3125 19.1055 58.0547 19.1016 57.7812 19.0938C57.5078 19.0938 57.2266 19.0898 56.9375 19.082C56.6484 19.0742 56.3672 19.0664 56.0938 19.0586C55.4531 19.043 54.793 19.0234 54.1133 19C54.1602 18.7656 54.1914 18.4648 54.207 18.0977C54.2305 17.7305 54.2461 17.3164 54.2539 16.8555C54.2695 16.3945 54.2773 15.8945 54.2773 15.3555C54.2852 14.8086 54.2891 14.2461 54.2891 13.668ZM56.5156 17.0664C56.7891 17.0898 57.1445 17.1172 57.582 17.1484C58.0273 17.1719 58.5312 17.1836 59.0938 17.1836C59.6172 17.1836 60.1328 17.1328 60.6406 17.0312C61.1562 16.9297 61.6445 16.7695 62.1055 16.5508C62.5742 16.3242 63.0078 16.0352 63.4062 15.6836C63.8047 15.332 64.1484 14.9141 64.4375 14.4297C64.7266 13.9375 64.9531 13.3711 65.1172 12.7305C65.2812 12.0898 65.3633 11.3672 65.3633 10.5625C65.3633 9.25 65.1953 8.15234 64.8594 7.26953C64.5312 6.38672 64.0859 5.67969 63.5234 5.14844C62.9609 4.60938 62.3008 4.22656 61.543 4C60.793 3.76562 59.9961 3.64844 59.1523 3.64844C58.957 3.64844 58.7383 3.65234 58.4961 3.66016C58.2539 3.66016 58.0078 3.66406 57.7578 3.67188C57.5156 3.67969 57.2852 3.6875 57.0664 3.69531C56.8477 3.69531 56.6641 3.69922 56.5156 3.70703V17.0664ZM70.8828 19V11.793C70.8828 10.6367 70.8164 9.66016 70.6836 8.86328C70.5586 8.05859 70.4297 7.45312 70.2969 7.04688H72.4062C72.4531 7.17188 72.5 7.33594 72.5469 7.53906C72.5938 7.73438 72.6367 7.94141 72.6758 8.16016C72.7148 8.37891 72.75 8.59375 72.7812 8.80469L72.875 9.33203C73.1562 8.92578 73.4609 8.56641 73.7891 8.25391C74.125 7.94141 74.4609 7.67969 74.7969 7.46875C75.1406 7.25 75.4727 7.08594 75.793 6.97656C76.1211 6.86719 76.418 6.8125 76.6836 6.8125C77.1758 6.8125 77.5898 6.92187 77.9258 7.14062C78.2695 7.35156 78.5469 7.64062 78.7578 8.00781C78.9766 8.36719 79.1328 8.78516 79.2266 9.26172C79.3281 9.73047 79.3789 10.2227 79.3789 10.7383L77.5039 11.1484C77.4883 10.8359 77.4492 10.5469 77.3867 10.2812C77.332 10.0156 77.25 9.78516 77.1406 9.58984C77.0391 9.39453 76.9062 9.24609 76.7422 9.14453C76.5859 9.03516 76.3906 8.98047 76.1562 8.98047C75.9062 8.98047 75.6289 9.07422 75.3242 9.26172C75.0195 9.44922 74.7188 9.69531 74.4219 10C74.1328 10.2969 73.8633 10.6406 73.6133 11.0312C73.3633 11.4141 73.1758 11.8047 73.0508 12.2031V19H70.8828ZM81.6641 17.7109C81.6641 17.4922 81.7031 17.2891 81.7812 17.1016C81.8672 16.9062 81.9805 16.7383 82.1211 16.5977C82.2695 16.4492 82.4375 16.3359 82.625 16.2578C82.8203 16.1719 83.0273 16.1289 83.2461 16.1289C83.4648 16.1289 83.668 16.1719 83.8555 16.2578C84.0508 16.3359 84.2188 16.4492 84.3594 16.5977C84.5078 16.7383 84.6211 16.9062 84.6992 17.1016C84.7852 17.2891 84.8281 17.4922 84.8281 17.7109C84.8281 17.9297 84.7852 18.1367 84.6992 18.332C84.6211 18.5195 84.5078 18.6875 84.3594 18.8359C84.2188 18.9766 84.0508 19.0859 83.8555 19.1641C83.668 19.25 83.4648 19.293 83.2461 19.293C83.0273 19.293 82.8203 19.25 82.625 19.1641C82.4375 19.0859 82.2695 18.9766 82.1211 18.8359C81.9805 18.6875 81.8672 18.5195 81.7812 18.332C81.7031 18.1367 81.6641 17.9297 81.6641 17.7109ZM104.691 4.9375C104.27 4.70312 103.879 4.50781 103.52 4.35156C103.168 4.1875 102.824 4.05469 102.488 3.95312C102.152 3.84375 101.816 3.76562 101.48 3.71875C101.145 3.67188 100.789 3.64844 100.414 3.64844C99.9453 3.64844 99.5156 3.71875 99.125 3.85938C98.7422 4 98.4102 4.1875 98.1289 4.42188C97.8477 4.65625 97.6289 4.92578 97.4727 5.23047C97.3242 5.53516 97.25 5.84766 97.25 6.16797C97.25 6.48828 97.293 6.78125 97.3789 7.04688C97.4727 7.30469 97.6562 7.55078 97.9297 7.78516C98.2031 8.01172 98.5938 8.23828 99.1016 8.46484C99.6094 8.68359 100.281 8.91406 101.117 9.15625C101.891 9.38281 102.574 9.64844 103.168 9.95312C103.77 10.25 104.273 10.5938 104.68 10.9844C105.086 11.375 105.395 11.8203 105.605 12.3203C105.816 12.8203 105.922 13.3867 105.922 14.0195C105.922 14.8086 105.766 15.5273 105.453 16.1758C105.148 16.8164 104.727 17.3711 104.188 17.8398C103.656 18.3008 103.035 18.6602 102.324 18.918C101.613 19.168 100.859 19.293 100.062 19.293C99.5 19.293 98.9492 19.2539 98.4102 19.1758C97.8789 19.0977 97.375 18.9883 96.8984 18.8477C96.4297 18.707 95.9961 18.543 95.5977 18.3555C95.1992 18.1602 94.8516 17.9453 94.5547 17.7109L95.082 15.3086C95.8633 15.9883 96.668 16.4805 97.4961 16.7852C98.332 17.0898 99.1875 17.2422 100.062 17.2422C100.531 17.2422 100.984 17.1758 101.422 17.043C101.859 16.9102 102.246 16.7188 102.582 16.4688C102.918 16.2109 103.188 15.8984 103.391 15.5312C103.594 15.1562 103.695 14.7305 103.695 14.2539C103.695 13.9492 103.645 13.6602 103.543 13.3867C103.449 13.1055 103.254 12.832 102.957 12.5664C102.66 12.3008 102.234 12.0391 101.68 11.7812C101.125 11.5156 100.391 11.2461 99.4766 10.9727C98.5625 10.6992 97.8164 10.3984 97.2383 10.0703C96.6602 9.74219 96.207 9.38672 95.8789 9.00391C95.5508 8.61328 95.3242 8.19922 95.1992 7.76172C95.082 7.31641 95.0234 6.84375 95.0234 6.34375C95.0234 5.84375 95.125 5.31641 95.3281 4.76172C95.5391 4.20703 95.8672 3.69531 96.3125 3.22656C96.7578 2.75781 97.3281 2.37109 98.0234 2.06641C98.7188 1.75391 99.5547 1.59766 100.531 1.59766C100.984 1.59766 101.406 1.61719 101.797 1.65625C102.195 1.69531 102.578 1.75781 102.945 1.84375C103.32 1.92969 103.688 2.03906 104.047 2.17188C104.406 2.30469 104.777 2.46484 105.16 2.65234L104.691 4.9375ZM111.207 15.9531C111.605 16.2344 111.949 16.4688 112.238 16.6562C112.535 16.8359 112.805 16.9805 113.047 17.0898C113.289 17.1914 113.52 17.2617 113.738 17.3008C113.965 17.3398 114.215 17.3594 114.488 17.3594C114.902 17.3594 115.297 17.2617 115.672 17.0664C116.055 16.8711 116.391 16.5898 116.68 16.2227C116.977 15.8477 117.211 15.3984 117.383 14.875C117.562 14.3438 117.652 13.7461 117.652 13.082C117.652 12.4336 117.59 11.8477 117.465 11.3242C117.348 10.793 117.172 10.3438 116.938 9.97656C116.703 9.60156 116.418 9.3125 116.082 9.10938C115.754 8.90625 115.379 8.80469 114.957 8.80469C114.621 8.80469 114.277 8.87891 113.926 9.02734C113.574 9.17578 113.23 9.39453 112.895 9.68359C112.566 9.97266 112.258 10.3359 111.969 10.7734C111.68 11.2031 111.426 11.6992 111.207 12.2617V15.9531ZM110.562 7.04688C110.648 7.25 110.734 7.53906 110.82 7.91406C110.906 8.28125 110.977 8.73438 111.031 9.27344C111.305 8.91406 111.602 8.58203 111.922 8.27734C112.25 7.97266 112.594 7.71484 112.953 7.50391C113.32 7.28516 113.703 7.11719 114.102 7C114.508 6.875 114.93 6.8125 115.367 6.8125C116.031 6.8125 116.637 6.96094 117.184 7.25781C117.738 7.54688 118.207 7.95703 118.59 8.48828C118.98 9.01172 119.281 9.63672 119.492 10.3633C119.711 11.082 119.82 11.8711 119.82 12.7305C119.82 13.7305 119.68 14.6367 119.398 15.4492C119.117 16.2539 118.734 16.9414 118.25 17.5117C117.773 18.082 117.211 18.5234 116.562 18.8359C115.914 19.1406 115.223 19.293 114.488 19.293C114.176 19.293 113.879 19.2617 113.598 19.1992C113.324 19.1367 113.055 19.0508 112.789 18.9414C112.531 18.832 112.273 18.6992 112.016 18.543C111.758 18.3789 111.488 18.1992 111.207 18.0039V20.7578C111.207 21.2266 111.211 21.6484 111.219 22.0234C111.234 22.4062 111.254 22.7578 111.277 23.0781C111.301 23.3984 111.332 23.6914 111.371 23.957C111.41 24.2305 111.453 24.4922 111.5 24.7422H109.039V13.3164C109.039 12.5898 109.031 11.918 109.016 11.3008C109.008 10.6758 108.984 10.1055 108.945 9.58984C108.906 9.06641 108.848 8.59375 108.77 8.17188C108.691 7.75 108.586 7.375 108.453 7.04688H110.562ZM130.602 8.92188C130.406 8.88281 130.121 8.83594 129.746 8.78125C129.379 8.71875 128.902 8.6875 128.316 8.6875C127.551 8.6875 126.91 8.84375 126.395 9.15625C125.887 9.46094 125.48 9.87109 125.176 10.3867C124.871 10.8945 124.652 11.4805 124.52 12.1445C124.395 12.8086 124.332 13.4922 124.332 14.1953C124.332 14.6484 124.375 15.0664 124.461 15.4492C124.555 15.8242 124.68 16.1523 124.836 16.4336C124.992 16.707 125.172 16.9219 125.375 17.0781C125.578 17.2266 125.797 17.3008 126.031 17.3008C126.289 17.3008 126.551 17.2148 126.816 17.043C127.09 16.8711 127.355 16.6406 127.613 16.3516C127.879 16.0547 128.137 15.7148 128.387 15.332C128.637 14.9492 128.871 14.5469 129.09 14.125C129.309 13.6953 129.512 13.2617 129.699 12.8242C129.887 12.3867 130.047 11.9727 130.18 11.582C130.312 11.1836 130.414 10.8203 130.484 10.4922C130.562 10.1641 130.602 9.89453 130.602 9.68359V8.92188ZM131.48 19C131.395 18.8125 131.316 18.5312 131.246 18.1562C131.184 17.7812 131.129 17.3789 131.082 16.9492C131.043 16.5117 131.012 16.0859 130.988 15.6719C130.965 15.2578 130.953 14.9219 130.953 14.6641V13.4922C130.703 14.1562 130.402 14.832 130.051 15.5195C129.707 16.207 129.312 16.832 128.867 17.3945C128.422 17.9492 127.93 18.4062 127.391 18.7656C126.859 19.1172 126.289 19.293 125.68 19.293C125.188 19.293 124.727 19.1836 124.297 18.9648C123.867 18.7461 123.492 18.4219 123.172 17.9922C122.859 17.5625 122.613 17.0312 122.434 16.3984C122.254 15.7578 122.164 15.0234 122.164 14.1953C122.164 13.2656 122.289 12.3594 122.539 11.4766C122.789 10.5859 123.172 9.79688 123.688 9.10938C124.203 8.41406 124.859 7.85938 125.656 7.44531C126.453 7.02344 127.398 6.8125 128.492 6.8125C129.25 6.8125 130.004 6.86328 130.754 6.96484C131.504 7.05859 132.176 7.18359 132.77 7.33984V12.7891C132.77 14.2656 132.84 15.5078 132.98 16.5156C133.121 17.5156 133.305 18.3438 133.531 19H131.48ZM136.227 19V11.793C136.227 10.6367 136.16 9.66016 136.027 8.86328C135.902 8.05859 135.773 7.45312 135.641 7.04688H137.75C137.797 7.17188 137.844 7.33594 137.891 7.53906C137.938 7.73438 137.98 7.94141 138.02 8.16016C138.059 8.37891 138.094 8.59375 138.125 8.80469L138.219 9.33203C138.5 8.92578 138.805 8.56641 139.133 8.25391C139.469 7.94141 139.805 7.67969 140.141 7.46875C140.484 7.25 140.816 7.08594 141.137 6.97656C141.465 6.86719 141.762 6.8125 142.027 6.8125C142.52 6.8125 142.934 6.92187 143.27 7.14062C143.613 7.35156 143.891 7.64062 144.102 8.00781C144.32 8.36719 144.477 8.78516 144.57 9.26172C144.672 9.73047 144.723 10.2227 144.723 10.7383L142.848 11.1484C142.832 10.8359 142.793 10.5469 142.73 10.2812C142.676 10.0156 142.594 9.78516 142.484 9.58984C142.383 9.39453 142.25 9.24609 142.086 9.14453C141.93 9.03516 141.734 8.98047 141.5 8.98047C141.25 8.98047 140.973 9.07422 140.668 9.26172C140.363 9.44922 140.062 9.69531 139.766 10C139.477 10.2969 139.207 10.6406 138.957 11.0312C138.707 11.4141 138.52 11.8047 138.395 12.2031V19H136.227ZM146.539 19V5.75781C146.539 4.49219 146.531 3.38672 146.516 2.44141C146.5 1.48828 146.449 0.757812 146.363 0.25H148.707V11.957L153.453 7.04688H156.383L150.582 12.2852L156.734 19H153.863L148.707 12.9062V19H146.539ZM161.375 13.4336C161.375 13.8086 161.379 14.25 161.387 14.7578C161.402 15.2656 161.418 15.7812 161.434 16.3047C161.457 16.8281 161.48 17.3281 161.504 17.8047C161.535 18.2812 161.57 18.6797 161.609 19H159.207V5.75781C159.207 4.61719 159.188 3.58594 159.148 2.66406C159.109 1.73438 159.051 0.929688 158.973 0.25H161.375V13.4336ZM165.43 3.23828C165.43 3.01953 165.465 2.81641 165.535 2.62891C165.605 2.43359 165.703 2.26562 165.828 2.125C165.961 1.97656 166.117 1.86328 166.297 1.78516C166.477 1.69922 166.676 1.65625 166.895 1.65625C167.113 1.65625 167.316 1.69922 167.504 1.78516C167.691 1.86328 167.852 1.97656 167.984 2.125C168.117 2.26562 168.223 2.43359 168.301 2.62891C168.379 2.81641 168.418 3.01953 168.418 3.23828C168.418 3.45703 168.379 3.66406 168.301 3.85938C168.223 4.04688 168.117 4.21484 167.984 4.36328C167.852 4.50391 167.691 4.61719 167.504 4.70312C167.316 4.78125 167.113 4.82031 166.895 4.82031C166.676 4.82031 166.477 4.78125 166.297 4.70312C166.117 4.61719 165.961 4.50391 165.828 4.36328C165.703 4.21484 165.605 4.04688 165.535 3.85938C165.465 3.66406 165.43 3.45703 165.43 3.23828ZM168.008 13.4336C168.008 13.8086 168.012 14.2539 168.02 14.7695C168.035 15.2773 168.051 15.793 168.066 16.3164C168.09 16.8398 168.113 17.3398 168.137 17.8164C168.168 18.293 168.203 18.6875 168.242 19H165.84V12.7891C165.84 12.2188 165.836 11.6562 165.828 11.1016C165.828 10.5469 165.82 10.0234 165.805 9.53125C165.797 9.03125 165.781 8.57031 165.758 8.14844C165.734 7.71875 165.703 7.35156 165.664 7.04688H168.008V13.4336ZM180.383 19V12.5547C180.383 11.8203 180.332 11.2148 180.23 10.7383C180.137 10.2617 179.992 9.88672 179.797 9.61328C179.609 9.33203 179.367 9.13672 179.07 9.02734C178.781 8.91797 178.438 8.86328 178.039 8.86328C177.617 8.86328 177.203 8.96484 176.797 9.16797C176.398 9.36328 176.031 9.62109 175.695 9.94141C175.359 10.2539 175.062 10.6094 174.805 11.0078C174.547 11.4062 174.355 11.8047 174.23 12.2031V19H172.062V11.793C172.062 10.6367 171.996 9.66016 171.863 8.86328C171.738 8.05859 171.609 7.45312 171.477 7.04688H173.586C173.633 7.17188 173.68 7.33594 173.727 7.53906C173.773 7.73438 173.816 7.94141 173.855 8.16016C173.895 8.37891 173.93 8.59375 173.961 8.80469L174.055 9.33203C174.797 8.44141 175.547 7.80078 176.305 7.41016C177.062 7.01172 177.855 6.8125 178.684 6.8125C179.934 6.8125 180.891 7.22266 181.555 8.04297C182.219 8.85547 182.551 10.0664 182.551 11.6758V19H180.383ZM193.578 9.27344C193.391 9.20312 193.191 9.14062 192.98 9.08594C192.77 9.02344 192.555 8.97266 192.336 8.93359C192.117 8.89453 191.902 8.86328 191.691 8.83984C191.488 8.81641 191.297 8.80469 191.117 8.80469C190.477 8.80469 189.93 8.9375 189.477 9.20312C189.023 9.46094 188.652 9.80469 188.363 10.2344C188.082 10.6562 187.875 11.1367 187.742 11.6758C187.609 12.2148 187.543 12.7617 187.543 13.3164C187.543 14.043 187.598 14.6484 187.707 15.1328C187.824 15.6094 187.98 15.9922 188.176 16.2812C188.379 16.5625 188.613 16.7656 188.879 16.8906C189.152 17.0078 189.449 17.0664 189.77 17.0664C190.066 17.0664 190.383 17.0078 190.719 16.8906C191.055 16.7656 191.391 16.5898 191.727 16.3633C192.07 16.1367 192.398 15.8555 192.711 15.5195C193.031 15.1836 193.32 14.8008 193.578 14.3711V9.27344ZM195.746 18.707C195.746 19.7383 195.594 20.6211 195.289 21.3555C194.992 22.0898 194.598 22.6875 194.105 23.1484C193.621 23.6172 193.066 23.9609 192.441 24.1797C191.816 24.3984 191.18 24.5078 190.531 24.5078C189.781 24.5078 189.035 24.3789 188.293 24.1211C187.559 23.8633 186.879 23.5234 186.254 23.1016L187.016 21.2852C187.57 21.6836 188.129 22.0078 188.691 22.2578C189.254 22.5078 189.828 22.6328 190.414 22.6328C190.719 22.6328 191.055 22.5781 191.422 22.4688C191.789 22.3594 192.133 22.168 192.453 21.8945C192.773 21.6289 193.039 21.2695 193.25 20.8164C193.469 20.3633 193.578 19.7969 193.578 19.1172V16.9492C193.273 17.332 192.949 17.6602 192.605 17.9336C192.27 18.1992 191.926 18.418 191.574 18.5898C191.23 18.7539 190.883 18.875 190.531 18.9531C190.188 19.0234 189.855 19.0586 189.535 19.0586C188.996 19.0586 188.477 18.9648 187.977 18.7773C187.477 18.5898 187.031 18.293 186.641 17.8867C186.258 17.4727 185.949 16.9375 185.715 16.2812C185.488 15.625 185.375 14.832 185.375 13.9023C185.375 13.0039 185.492 12.1289 185.727 11.2773C185.961 10.4258 186.324 9.67188 186.816 9.01562C187.309 8.35156 187.938 7.82031 188.703 7.42188C189.477 7.01562 190.398 6.8125 191.469 6.8125C191.82 6.8125 192.18 6.83984 192.547 6.89453C192.922 6.94141 193.293 7.00781 193.66 7.09375C194.027 7.17969 194.387 7.27734 194.738 7.38672C195.09 7.48828 195.426 7.58984 195.746 7.69141V18.707ZM200.152 6.75391C200.137 6.33984 200.121 5.91406 200.105 5.47656C200.09 5.03125 200.066 4.55469 200.035 4.04688C200.004 3.53906 199.961 2.98828 199.906 2.39453C199.852 1.80078 199.777 1.14453 199.684 0.425781H202.086C202 1.14453 201.93 1.80078 201.875 2.39453C201.82 2.98828 201.777 3.53906 201.746 4.04688C201.715 4.55469 201.688 5.03125 201.664 5.47656C201.648 5.91406 201.633 6.33984 201.617 6.75391H200.152ZM213.816 9.80078C213.621 9.68359 213.398 9.5625 213.148 9.4375C212.898 9.30469 212.625 9.18359 212.328 9.07422C212.039 8.96484 211.727 8.875 211.391 8.80469C211.062 8.72656 210.719 8.6875 210.359 8.6875C209.93 8.6875 209.566 8.73438 209.27 8.82812C208.98 8.92188 208.746 9.04297 208.566 9.19141C208.395 9.33203 208.27 9.49609 208.191 9.68359C208.113 9.86328 208.074 10.0391 208.074 10.2109C208.074 10.4141 208.105 10.5938 208.168 10.75C208.23 10.9062 208.359 11.0508 208.555 11.1836C208.758 11.3164 209.043 11.4453 209.41 11.5703C209.777 11.6953 210.27 11.8281 210.887 11.9688C211.418 12.0859 211.918 12.2383 212.387 12.4258C212.855 12.6055 213.266 12.8359 213.617 13.1172C213.969 13.3984 214.246 13.7383 214.449 14.1367C214.652 14.5273 214.754 14.9961 214.754 15.543C214.754 16.0742 214.637 16.5664 214.402 17.0195C214.168 17.4727 213.848 17.8711 213.441 18.2148C213.035 18.5508 212.559 18.8125 212.012 19C211.465 19.1953 210.875 19.293 210.242 19.293C209.766 19.293 209.305 19.2578 208.859 19.1875C208.422 19.1172 208.008 19.0195 207.617 18.8945C207.234 18.7695 206.883 18.625 206.562 18.4609C206.242 18.2969 205.965 18.125 205.73 17.9453L206.316 15.8359C206.582 16.0703 206.879 16.2852 207.207 16.4805C207.543 16.6758 207.887 16.8438 208.238 16.9844C208.59 17.125 208.941 17.2344 209.293 17.3125C209.652 17.3828 209.988 17.418 210.301 17.418C210.645 17.418 210.957 17.375 211.238 17.2891C211.527 17.1953 211.773 17.0781 211.977 16.9375C212.188 16.7891 212.352 16.6211 212.469 16.4336C212.586 16.2383 212.645 16.0391 212.645 15.8359C212.645 15.6172 212.598 15.4141 212.504 15.2266C212.418 15.0312 212.254 14.8477 212.012 14.6758C211.777 14.4961 211.449 14.3242 211.027 14.1602C210.613 13.9961 210.078 13.832 209.422 13.668C208.711 13.4961 208.129 13.293 207.676 13.0586C207.23 12.8242 206.879 12.5664 206.621 12.2852C206.371 12.0039 206.199 11.6992 206.105 11.3711C206.012 11.043 205.965 10.6953 205.965 10.3281C205.965 10.1484 205.992 9.9375 206.047 9.69531C206.109 9.45312 206.207 9.20312 206.34 8.94531C206.48 8.67969 206.66 8.42188 206.879 8.17188C207.105 7.91406 207.387 7.6875 207.723 7.49219C208.059 7.28906 208.453 7.125 208.906 7C209.359 6.875 209.883 6.8125 210.477 6.8125C210.898 6.8125 211.293 6.83984 211.66 6.89453C212.035 6.94922 212.375 7.02344 212.68 7.11719C212.992 7.20312 213.277 7.30469 213.535 7.42188C213.793 7.53125 214.023 7.64062 214.227 7.75L213.816 9.80078Z" fill="black"/>
<path d="M54.1073 31H56.7153C57.9313 31 58.87 31.3467 59.5313 32.04C60.2033 32.7227 60.5393 33.7147 60.5393 35.016C60.5393 36.3173 60.2086 37.3093 59.5473 37.992C58.8966 38.664 57.958 39 56.7313 39H54.1073V31ZM56.7313 38.28C57.5846 38.28 58.2246 38.0187 58.6513 37.496C59.078 36.9733 59.2913 36.1467 59.2913 35.016C59.2913 33.896 59.0726 33.0693 58.6353 32.536C58.2086 31.992 57.5686 31.72 56.7153 31.72H55.2593V38.28H56.7313ZM68.9761 39V31H73.5841V31.704H70.1281V34.616H73.2641V35.304H70.1281V38.296H73.8241V39H68.9761ZM82.2354 39V31H83.4514L87.4994 37.272L87.4514 36.936V31H88.2834V39H87.2914L83.0194 32.456H83.0034L83.0834 32.936V39H82.2354ZM98.6033 39V31.704H96.2513V31H102.107V31.704H99.7713V39H98.6033ZM108.718 39L111.502 31H112.862L115.566 39H114.366L113.534 36.616H110.366L109.534 39H108.718ZM110.574 36.008H113.326L111.982 31.848L110.574 36.008ZM123.717 39V31H124.869V38.296H128.453V39H123.717ZM149.682 39.16C148.53 39.16 147.634 38.7973 146.994 38.072C146.354 37.336 146.034 36.3333 146.034 35.064C146.034 34.2213 146.183 33.48 146.482 32.84C146.781 32.2 147.202 31.7093 147.746 31.368C148.301 31.016 148.946 30.84 149.682 30.84C150.077 30.84 150.455 30.8933 150.818 31C151.191 31.1067 151.506 31.224 151.762 31.352C152.029 31.48 152.162 31.5493 152.162 31.56L152.018 32.232C151.965 32.2 151.826 32.1307 151.602 32.024C151.378 31.9173 151.101 31.816 150.77 31.72C150.439 31.624 150.114 31.576 149.794 31.576C148.994 31.576 148.375 31.8693 147.938 32.456C147.501 33.032 147.282 33.8907 147.282 35.032C147.282 36.1627 147.506 37.0107 147.954 37.576C148.413 38.1307 149.053 38.408 149.874 38.408C150.311 38.408 150.695 38.3227 151.026 38.152C151.367 37.9813 151.634 37.7947 151.826 37.592C152.029 37.3893 152.13 37.272 152.13 37.24L152.562 37.72C152.562 37.7627 152.445 37.9067 152.21 38.152C151.986 38.3973 151.661 38.6267 151.234 38.84C150.807 39.0533 150.29 39.16 149.682 39.16ZM160.651 39V31H161.803V38.296H165.387V39H160.651ZM173.426 39V31H174.578V39H173.426ZM183.623 39V31H184.839L188.887 37.272L188.839 36.936V31H189.671V39H188.679L184.407 32.456H184.391L184.471 32.936V39H183.623ZM198.695 39V31H199.847V39H198.695ZM211.948 39.16C210.796 39.16 209.9 38.7973 209.26 38.072C208.62 37.336 208.3 36.3333 208.3 35.064C208.3 34.2213 208.449 33.48 208.748 32.84C209.046 32.2 209.468 31.7093 210.012 31.368C210.566 31.016 211.212 30.84 211.948 30.84C212.342 30.84 212.721 30.8933 213.084 31C213.457 31.1067 213.772 31.224 214.028 31.352C214.294 31.48 214.428 31.5493 214.428 31.56L214.284 32.232C214.23 32.2 214.092 32.1307 213.868 32.024C213.644 31.9173 213.366 31.816 213.036 31.72C212.705 31.624 212.38 31.576 212.06 31.576C211.26 31.576 210.641 31.8693 210.204 32.456C209.766 33.032 209.548 33.8907 209.548 35.032C209.548 36.1627 209.772 37.0107 210.22 37.576C210.678 38.1307 211.318 38.408 212.14 38.408C212.577 38.408 212.961 38.3227 213.292 38.152C213.633 37.9813 213.9 37.7947 214.092 37.592C214.294 37.3893 214.396 37.272 214.396 37.24L214.828 37.72C214.828 37.7627 214.71 37.9067 214.476 38.152C214.252 38.3973 213.926 38.6267 213.5 38.84C213.073 39.0533 212.556 39.16 211.948 39.16Z" fill="black"/>
<path d="M6.94728e-05 13.4198C-0.0094837 9.613 0.964938 6.14969 3.7067 3.3924C6.96433 0.110378 10.8429 -0.805534 15.2469 0.711449C16.5844 1.16941 17.9123 1.67506 19.1064 2.42878C20.4439 3.27791 21.7335 3.24929 23.1188 2.58143C24.9434 1.70368 26.8158 0.902254 28.8029 0.492001C33.1305 -0.414373 36.541 1.22666 39.0821 4.65179C41.7188 8.2105 42.5117 12.3035 41.6901 16.5968C40.4578 23.0082 38.2892 29.0857 34.6876 34.6003C34.0571 35.5639 33.2929 36.413 32.4522 37.1954C30.1117 39.3611 27.0929 39.6092 24.4849 37.7678C23.4913 37.0713 22.6029 36.2127 21.6667 35.4303C20.463 34.419 20.1382 34.4476 19.1637 35.6593C18.495 36.4989 17.7594 37.2812 16.871 37.8823C14.4158 39.5615 11.6549 39.2848 9.33352 37.1763C6.69684 34.7816 5.12057 31.6903 3.66849 28.5228C1.82473 24.5157 0.554153 20.3368 0.133813 15.929C0.0573879 15.0989 0.0382822 14.2594 6.94728e-05 13.4198ZM38.3656 13.9445C38.4707 11.8646 37.9739 9.93739 37.0568 8.08648C35.1557 4.27971 31.8695 2.97262 27.8762 4.48007C26.4528 5.02389 25.0389 5.60586 23.6346 6.18785C21.7144 6.97973 19.8707 6.84616 18.0365 5.86346C16.8328 5.21469 15.5622 4.67087 14.3012 4.13658C10.327 2.45741 6.81148 4.64224 5.16834 7.22779C3.92642 9.18365 3.58251 11.3494 3.60161 13.5724C3.63983 18.3046 4.96772 22.7411 6.92612 27.0154C8.10116 29.5818 9.33352 32.1292 11.3779 34.1614C12.9828 35.7643 14.3394 35.7261 15.8679 34.0374C16.4029 33.4459 16.8996 32.8066 17.4824 32.2628C19.0873 30.7935 20.8738 30.6695 22.7271 31.7953C23.6155 32.3391 24.3989 33.007 25.144 33.713C27.8762 36.289 29.2901 35.831 31.5351 32.8829C31.9936 32.2819 32.3662 31.6045 32.7675 30.9557C33.9329 29.0666 34.8023 27.0249 35.5761 24.9546C36.904 21.3768 38.1937 17.7894 38.3752 13.9254L38.3656 13.9445Z" fill="#82E5D4"/>
<path d="M28.5927 14.3261C28.5831 15.5092 27.6087 16.4537 26.4337 16.4347C25.2586 16.4156 24.3033 15.452 24.3224 14.2784C24.3415 13.1049 25.3064 12.1509 26.4814 12.1699C27.666 12.1795 28.6118 13.1526 28.5927 14.3261Z" fill="#82E5D4"/>
<path d="M21.0073 24.6397C18.4662 24.6111 15.9346 23.6093 14.0144 21.6535C13.4126 21.0428 13.4221 20.0601 14.0431 19.4591C14.6545 18.858 15.6384 18.8676 16.2403 19.4877C18.8674 22.1782 23.195 22.2259 25.889 19.6022C26.5004 19.0011 27.4939 19.0107 28.0862 19.6308C28.6785 20.251 28.6785 21.2241 28.0576 21.8252C26.0992 23.7334 23.5389 24.6779 20.9978 24.6397H21.0073Z" fill="#82E5D4"/>
<path d="M18.5046 15.7286C18.2657 15.7286 18.0365 15.6332 17.8645 15.4519C17.062 14.6314 15.7437 14.6124 14.9221 15.4138C14.5591 15.7668 13.9764 15.7573 13.6229 15.3947C13.2694 15.0322 13.279 14.4502 13.642 14.0972C15.1896 12.5897 17.6734 12.6183 19.1828 14.164C19.5363 14.5265 19.5267 15.1085 19.1637 15.4615C18.9822 15.6332 18.7434 15.7286 18.5141 15.7191L18.5046 15.7286Z" fill="#82E5D4"/>
<path d="M18.5332 15.6714C18.4664 15.6714 18.3899 15.6618 18.3231 15.6427C17.8358 15.5187 17.5397 15.0226 17.6639 14.5265C17.7976 13.9826 17.7212 13.4293 17.4346 12.9522C17.1767 12.5133 17.32 11.96 17.7499 11.7024C18.1893 11.4448 18.7434 11.5879 19.0013 12.0172C19.5363 12.9141 19.6892 13.9636 19.4312 14.9844C19.3261 15.4042 18.944 15.6809 18.5332 15.6714Z" fill="#82E5D4"/>
</svg>
